<svg xmlns="http://www.w3.org/2000/svg" viewBox="0 0 200 200">
  <rect width="200" height="200" fill="white"/>
  <g>
    <!-- Simple QR code pattern -->
    <rect x="10" y="10" width="30" height="30" fill="black"/>
    <rect x="60" y="10" width="10" height="10" fill="black"/>
    <rect x="80" y="10" width="10" height="10" fill="black"/>
    <rect x="100" y="10" width="10" height="10" fill="black"/>
    <rect x="120" y="10" width="10" height="10" fill="black"/>
    <rect x="140" y="10" width="10" height="10" fill="black"/>
    <rect x="160" y="10" width="30" height="30" fill="black"/>

    <rect x="10" y="50" width="10" height="10" fill="black"/>
    <rect x="30" y="50" width="10" height="10" fill="black"/>
    <rect x="60" y="50" width="30" height="30" fill="black"/>
    <rect x="100" y="50" width="10" height="10" fill="black"/>
    <rect x="120" y="50" width="10" height="10" fill="black"/>
    <rect x="160" y="50" width="10" height="10" fill="black"/>
    <rect x="180" y="50" width="10" height="10" fill="black"/>

    <rect x="10" y="80" width="10" height="10" fill="black"/>
    <rect x="30" y="80" width="10" height="10" fill="black"/>
    <rect x="50" y="80" width="10" height="10" fill="black"/>
    <rect x="70" y="80" width="10" height="10" fill="black"/>
    <rect x="110" y="80" width="10" height="10" fill="black"/>
    <rect x="130" y="80" width="10" height="10" fill="black"/>
    <rect x="160" y="80" width="10" height="10" fill="black"/>
    <rect x="180" y="80" width="10" height="10" fill="black"/>

    <rect x="10" y="100" width="10" height="10" fill="black"/>
    <rect x="30" y="100" width="10" height="10" fill="black"/>
    <rect x="60" y="100" width="10" height="10" fill="black"/>
    <rect x="80" y="100" width="10" height="10" fill="black"/>
    <rect x="100" y="100" width="10" height="10" fill="black"/>
    <rect x="120" y="100" width="10" height="10" fill="black"/>
    <rect x="160" y="100" width="10" height="10" fill="black"/>
    <rect x="180" y="100" width="10" height="10" fill="black"/>

    <rect x="10" y="120" width="10" height="10" fill="black"/>
    <rect x="30" y="120" width="10" height="10" fill="black"/>
    <rect x="50" y="120" width="30" height="30" fill="black"/>
    <rect x="100" y="120" width="30" height="30" fill="black"/>
    <rect x="160" y="120" width="10" height="10" fill="black"/>
    <rect x="180" y="120" width="10" height="10" fill="black"/>

    <rect x="10" y="160" width="30" height="30" fill="black"/>
    <rect x="60" y="160" width="10" height="10" fill="black"/>
    <rect x="80" y="160" width="10" height="10" fill="black"/>
    <rect x="100" y="160" width="10" height="10" fill="black"/>
    <rect x="120" y="160" width="10" height="10" fill="black"/>
    <rect x="140" y="160" width="10" height="10" fill="black"/>
    <rect x="160" y="160" width="30" height="30" fill="black"/>
  </g>
  <text x="100" y="195" text-anchor="middle" font-family="Arial, sans-serif" font-size="12" fill="#ff2d55">RedNote QR Code</text>
</svg>